<svg width="268" height="77" viewBox="0 0 268 77" fill="none" xmlns="http://www.w3.org/2000/svg">
<g filter="url(#filter0_d_93_90)">
<ellipse cx="61.3085" cy="17.2405" rx="12.4513" ry="12.7604" fill="#3AB64A"/>
</g>
<g filter="url(#filter1_d_93_90)">
<rect x="91.8564" y="5.17603" width="24.9027" height="25.5207" fill="#1076BC"/>
</g>
<g filter="url(#filter2_d_93_90)">
<rect x="134.856" y="7.49609" width="27.1666" height="20.8806" fill="#ED1D24"/>
</g>
<g filter="url(#filter3_d_93_90)">
<rect width="22.9157" height="22.9272" transform="matrix(0.705693 -0.708518 0.691012 0.722843 180.119 17.2362)" fill="black"/>
</g>
<path d="M23.1897 63.2858L20.942 55.9063H9.63952L7.39175 63.2858H0.309158L11.2511 32.1563H19.288L30.2723 63.2858H23.1897ZM19.3728 50.3929L17.125 43.1831C16.9836 42.7024 16.7928 42.0875 16.5525 41.3382C16.3263 40.5748 16.093 39.8044 15.8527 39.0268C15.6265 38.2352 15.4427 37.5495 15.3013 36.9699C15.16 37.5495 14.9621 38.2705 14.7076 39.1329C14.4673 39.9811 14.234 40.7869 14.0078 41.5503C13.7816 42.3137 13.6191 42.8579 13.5201 43.1831L11.2935 50.3929H19.3728ZM40.154 63.2858H33.6864V30.2902H40.154V63.2858ZM60.1507 39.1329C62.8225 39.1329 64.9784 40.1719 66.6183 42.2501C68.2723 44.3282 69.0993 47.3747 69.0993 51.3896C69.0993 54.0756 68.7106 56.3375 67.933 58.1753C67.1555 59.9989 66.0811 61.3773 64.7098 62.3103C63.3385 63.2434 61.7623 63.7099 59.981 63.7099C58.8359 63.7099 57.8534 63.5685 57.0335 63.2858C56.2135 62.9889 55.5138 62.6143 54.9342 62.1619C54.3545 61.6954 53.8527 61.2006 53.4286 60.6775H53.0893C53.2024 61.243 53.2872 61.8226 53.3438 62.4163C53.4003 63.0101 53.4286 63.5897 53.4286 64.1552V73.7188H46.9609V39.5782H52.2199L53.1317 42.653H53.4286C53.8527 42.0168 54.3687 41.4301 54.9766 40.8929C55.5845 40.3557 56.3125 39.9316 57.1607 39.6206C58.0231 39.2954 59.0197 39.1329 60.1507 39.1329ZM58.0725 44.307C56.9416 44.307 56.0439 44.5402 55.3795 45.0067C54.715 45.4733 54.2273 46.173 53.9163 47.1061C53.6194 48.0391 53.4568 49.2195 53.4286 50.6474V51.3472C53.4286 52.8739 53.5699 54.1675 53.8527 55.2277C54.1496 56.288 54.6373 57.0938 55.3159 57.6451C56.0086 58.1965 56.9557 58.4722 58.1574 58.4722C59.147 58.4722 59.9598 58.1965 60.596 57.6451C61.2321 57.0938 61.7057 56.288 62.0167 55.2277C62.3419 54.1533 62.5045 52.8457 62.5045 51.3047C62.5045 48.9863 62.144 47.2404 61.423 46.067C60.702 44.8937 59.5852 44.307 58.0725 44.307ZM80.9107 39.5782V63.2858H74.4431V39.5782H80.9107ZM77.6875 30.2902C78.6488 30.2902 79.4758 30.5164 80.1685 30.9688C80.8612 31.407 81.2076 32.2341 81.2076 33.4498C81.2076 34.6515 80.8612 35.4855 80.1685 35.9521C79.4758 36.4044 78.6488 36.6306 77.6875 36.6306C76.7121 36.6306 75.878 36.4044 75.1853 35.9521C74.5067 35.4855 74.1674 34.6515 74.1674 33.4498C74.1674 32.2341 74.5067 31.407 75.1853 30.9688C75.878 30.5164 76.7121 30.2902 77.6875 30.2902ZM101.183 39.1329C103.714 39.1329 105.749 39.8256 107.29 41.211C108.831 42.5823 109.602 44.7876 109.602 47.8271V63.2858H103.134V49.4387C103.134 47.7422 102.823 46.4629 102.201 45.6005C101.593 44.7381 100.632 44.307 99.317 44.307C97.3378 44.307 95.9877 44.9785 95.2667 46.3215C94.5458 47.6645 94.1853 49.6012 94.1853 52.1317V63.2858H87.7176V39.5782H92.6585L93.5279 42.6105H93.8884C94.3973 41.7906 95.0264 41.1262 95.7757 40.6172C96.5391 40.1083 97.3802 39.7337 98.2991 39.4934C99.2321 39.253 100.193 39.1329 101.183 39.1329ZM126.036 39.1329C128.227 39.1329 130.114 39.557 131.698 40.4052C133.281 41.2393 134.504 42.455 135.366 44.0525C136.228 45.65 136.66 47.6009 136.66 49.9052V53.0436H121.371C121.441 54.8672 121.985 56.3021 123.003 57.3483C124.035 58.3803 125.463 58.8963 127.287 58.8963C128.799 58.8963 130.185 58.7408 131.443 58.4297C132.701 58.1187 133.995 57.6522 135.324 57.0302V62.0347C134.15 62.6143 132.92 63.0384 131.634 63.307C130.362 63.5756 128.814 63.7099 126.99 63.7099C124.615 63.7099 122.509 63.2716 120.671 62.3951C118.847 61.5187 117.412 60.1827 116.366 58.3873C115.334 56.5919 114.818 54.33 114.818 51.6016C114.818 48.8308 115.285 46.5265 116.218 44.6887C117.165 42.8367 118.48 41.4513 120.162 40.5324C121.844 39.5994 123.802 39.1329 126.036 39.1329ZM126.078 43.7344C124.82 43.7344 123.774 44.1373 122.94 44.9431C122.12 45.7489 121.646 47.0142 121.519 48.7389H130.595C130.581 47.7776 130.404 46.9223 130.065 46.173C129.74 45.4238 129.245 44.83 128.58 44.3918C127.93 43.9536 127.096 43.7344 126.078 43.7344ZM172.009 54.6764C172.009 56.5142 171.564 58.1117 170.673 59.4688C169.782 60.8259 168.482 61.8721 166.771 62.6072C165.075 63.3423 163.011 63.7099 160.579 63.7099C159.505 63.7099 158.452 63.6392 157.42 63.4978C156.402 63.3565 155.419 63.1515 154.472 62.8829C153.539 62.6001 152.648 62.2538 151.8 61.8438V55.7367C153.27 56.387 154.797 56.9736 156.381 57.4967C157.964 58.0198 159.533 58.2813 161.088 58.2813C162.163 58.2813 163.025 58.1399 163.675 57.8572C164.34 57.5745 164.82 57.1857 165.117 56.6909C165.414 56.1961 165.562 55.6306 165.562 54.9945C165.562 54.2169 165.301 53.5525 164.778 53.0012C164.255 52.4498 163.534 51.9338 162.615 51.4532C161.71 50.9725 160.685 50.4565 159.54 49.9052C158.819 49.5659 158.035 49.1559 157.186 48.6753C156.338 48.1805 155.532 47.5797 154.769 46.8728C154.006 46.166 153.376 45.3107 152.882 44.307C152.401 43.2891 152.161 42.0733 152.161 40.6597C152.161 38.8077 152.585 37.2244 153.433 35.9097C154.281 34.5949 155.49 33.5912 157.059 32.8985C158.642 32.1916 160.509 31.8382 162.657 31.8382C164.269 31.8382 165.803 32.0291 167.259 32.4108C168.729 32.7783 170.263 33.3155 171.86 34.0224L169.74 39.1329C168.312 38.5533 167.033 38.1079 165.902 37.7969C164.771 37.4718 163.619 37.3092 162.445 37.3092C161.625 37.3092 160.926 37.4435 160.346 37.7121C159.766 37.9666 159.328 38.3341 159.031 38.8148C158.734 39.2813 158.586 39.8256 158.586 40.4476C158.586 41.1827 158.798 41.8047 159.222 42.3137C159.66 42.8085 160.311 43.2891 161.173 43.7556C162.049 44.2222 163.138 44.7664 164.439 45.3884C166.022 46.1377 167.372 46.9223 168.489 47.7422C169.62 48.548 170.489 49.5023 171.097 50.605C171.705 51.6935 172.009 53.0506 172.009 54.6764ZM190.309 39.1329C192.981 39.1329 195.137 40.1719 196.777 42.2501C198.431 44.3282 199.258 47.3747 199.258 51.3896C199.258 54.0756 198.869 56.3375 198.092 58.1753C197.314 59.9989 196.24 61.3773 194.868 62.3103C193.497 63.2434 191.921 63.7099 190.14 63.7099C188.994 63.7099 188.012 63.5685 187.192 63.2858C186.372 62.9889 185.672 62.6143 185.093 62.1619C184.513 61.6954 184.011 61.2006 183.587 60.6775H183.248C183.361 61.243 183.446 61.8226 183.502 62.4163C183.559 63.0101 183.587 63.5897 183.587 64.1552V73.7188H177.119V39.5782H182.378L183.29 42.653H183.587C184.011 42.0168 184.527 41.4301 185.135 40.8929C185.743 40.3557 186.471 39.9316 187.319 39.6206C188.182 39.2954 189.178 39.1329 190.309 39.1329ZM188.231 44.307C187.1 44.307 186.202 44.5402 185.538 45.0067C184.874 45.4733 184.386 46.173 184.075 47.1061C183.778 48.0391 183.615 49.2195 183.587 50.6474V51.3472C183.587 52.8739 183.728 54.1675 184.011 55.2277C184.308 56.288 184.796 57.0938 185.474 57.6451C186.167 58.1965 187.114 58.4722 188.316 58.4722C189.305 58.4722 190.118 58.1965 190.754 57.6451C191.391 57.0938 191.864 56.288 192.175 55.2277C192.5 54.1533 192.663 52.8457 192.663 51.3047C192.663 48.9863 192.302 47.2404 191.581 46.067C190.86 44.8937 189.744 44.307 188.231 44.307ZM226.146 51.3896C226.146 53.3687 225.878 55.1217 225.34 56.6485C224.817 58.1753 224.047 59.4688 223.029 60.5291C222.025 61.5752 220.81 62.3669 219.382 62.9041C217.968 63.4413 216.371 63.7099 214.589 63.7099C212.921 63.7099 211.387 63.4413 209.988 62.9041C208.602 62.3669 207.394 61.5752 206.362 60.5291C205.344 59.4688 204.552 58.1753 203.987 56.6485C203.435 55.1217 203.16 53.3687 203.16 51.3896C203.16 48.7601 203.626 46.5335 204.559 44.7099C205.492 42.8862 206.821 41.5008 208.546 40.5536C210.27 39.6065 212.327 39.1329 214.717 39.1329C216.936 39.1329 218.901 39.6065 220.612 40.5536C222.336 41.5008 223.686 42.8862 224.662 44.7099C225.651 46.5335 226.146 48.7601 226.146 51.3896ZM209.754 51.3896C209.754 52.9446 209.924 54.2523 210.263 55.3126C210.603 56.3728 211.133 57.1716 211.854 57.7088C212.575 58.246 213.515 58.5146 214.674 58.5146C215.819 58.5146 216.745 58.246 217.452 57.7088C218.173 57.1716 218.696 56.3728 219.021 55.3126C219.36 54.2523 219.53 52.9446 219.53 51.3896C219.53 49.8204 219.36 48.5198 219.021 47.4878C218.696 46.4416 218.173 45.657 217.452 45.134C216.731 44.6109 215.791 44.3494 214.632 44.3494C212.921 44.3494 211.677 44.9361 210.9 46.1094C210.136 47.2828 209.754 49.0428 209.754 51.3896ZM244.722 39.1329C245.047 39.1329 245.422 39.1541 245.846 39.1965C246.284 39.2248 246.638 39.2672 246.906 39.3237L246.419 45.3884C246.206 45.3178 245.903 45.2683 245.507 45.24C245.125 45.1976 244.793 45.1764 244.51 45.1764C243.676 45.1764 242.863 45.2824 242.071 45.4945C241.294 45.7065 240.594 46.0529 239.972 46.5335C239.35 47.0001 238.855 47.6221 238.488 48.3996C238.134 49.163 237.958 50.1031 237.958 51.2199V63.2858H231.49V39.5782H236.388L237.343 43.5648H237.661C238.127 42.759 238.707 42.0239 239.4 41.3594C240.106 40.6809 240.905 40.1437 241.796 39.7478C242.701 39.3379 243.676 39.1329 244.722 39.1329ZM261.199 58.557C261.905 58.557 262.591 58.4863 263.256 58.3449C263.934 58.2035 264.606 58.0268 265.27 57.8148V62.6284C264.577 62.9394 263.715 63.1939 262.683 63.3918C261.665 63.6038 260.548 63.7099 259.333 63.7099C257.919 63.7099 256.647 63.4837 255.516 63.0313C254.399 62.5648 253.515 61.766 252.865 60.6351C252.229 59.49 251.911 57.8996 251.911 55.8639V44.4342H248.815V41.6987L252.377 39.5358L254.243 34.5313H258.378V39.5782H265.016V44.4342H258.378V55.8639C258.378 56.7687 258.633 57.4472 259.142 57.8996C259.665 58.3379 260.35 58.557 261.199 58.557Z" fill="white"/>
<defs>
<filter id="filter0_d_93_90" x="47.6971" y="3.55208" width="27.2227" height="27.8408" filterUnits="userSpaceOnUse" color-interpolation-filters="sRGB">
<feFlood flood-opacity="0" result="BackgroundImageFix"/>
<feColorMatrix in="SourceAlpha" type="matrix" values="0 0 0 0 0 0 0 0 0 0 0 0 0 0 0 0 0 0 127 0" result="hardAlpha"/>
<feOffset dy="0.232007"/>
<feGaussianBlur stdDeviation="0.580016"/>
<feComposite in2="hardAlpha" operator="out"/>
<feColorMatrix type="matrix" values="0 0 0 0 0 0 0 0 0 0 0 0 0 0 0 0 0 0 0.25 0"/>
<feBlend mode="normal" in2="BackgroundImageFix" result="effect1_dropShadow_93_90"/>
<feBlend mode="normal" in="SourceGraphic" in2="effect1_dropShadow_93_90" result="shape"/>
</filter>
<filter id="filter1_d_93_90" x="90.6964" y="4.248" width="27.2227" height="27.8408" filterUnits="userSpaceOnUse" color-interpolation-filters="sRGB">
<feFlood flood-opacity="0" result="BackgroundImageFix"/>
<feColorMatrix in="SourceAlpha" type="matrix" values="0 0 0 0 0 0 0 0 0 0 0 0 0 0 0 0 0 0 127 0" result="hardAlpha"/>
<feOffset dy="0.232007"/>
<feGaussianBlur stdDeviation="0.580016"/>
<feComposite in2="hardAlpha" operator="out"/>
<feColorMatrix type="matrix" values="0 0 0 0 0 0 0 0 0 0 0 0 0 0 0 0 0 0 0.25 0"/>
<feBlend mode="normal" in2="BackgroundImageFix" result="effect1_dropShadow_93_90"/>
<feBlend mode="normal" in="SourceGraphic" in2="effect1_dropShadow_93_90" result="shape"/>
</filter>
<filter id="filter2_d_93_90" x="133.695" y="6.56807" width="29.4866" height="23.2007" filterUnits="userSpaceOnUse" color-interpolation-filters="sRGB">
<feFlood flood-opacity="0" result="BackgroundImageFix"/>
<feColorMatrix in="SourceAlpha" type="matrix" values="0 0 0 0 0 0 0 0 0 0 0 0 0 0 0 0 0 0 127 0" result="hardAlpha"/>
<feOffset dy="0.232007"/>
<feGaussianBlur stdDeviation="0.580016"/>
<feComposite in2="hardAlpha" operator="out"/>
<feColorMatrix type="matrix" values="0 0 0 0 0 0 0 0 0 0 0 0 0 0 0 0 0 0 0.25 0"/>
<feBlend mode="normal" in2="BackgroundImageFix" result="effect1_dropShadow_93_90"/>
<feBlend mode="normal" in="SourceGraphic" in2="effect1_dropShadow_93_90" result="shape"/>
</filter>
<filter id="filter3_d_93_90" x="178.959" y="0.0719739" width="34.3345" height="35.129" filterUnits="userSpaceOnUse" color-interpolation-filters="sRGB">
<feFlood flood-opacity="0" result="BackgroundImageFix"/>
<feColorMatrix in="SourceAlpha" type="matrix" values="0 0 0 0 0 0 0 0 0 0 0 0 0 0 0 0 0 0 127 0" result="hardAlpha"/>
<feOffset dy="0.232007"/>
<feGaussianBlur stdDeviation="0.580016"/>
<feComposite in2="hardAlpha" operator="out"/>
<feColorMatrix type="matrix" values="0 0 0 0 0 0 0 0 0 0 0 0 0 0 0 0 0 0 0.25 0"/>
<feBlend mode="normal" in2="BackgroundImageFix" result="effect1_dropShadow_93_90"/>
<feBlend mode="normal" in="SourceGraphic" in2="effect1_dropShadow_93_90" result="shape"/>
</filter>
</defs>
</svg>
